<svg width="3055" height="1105" viewBox="0 0 3055 1105" fill="none" xmlns="http://www.w3.org/2000/svg">
<g id="N-3-GRAPH">
<path id="Vector 276" d="M1580 305L1580 1007" stroke="#FF5F5F" stroke-opacity="0.5"/>
<path id="Vector 230" d="M84 305H3011" stroke="#FF5F5F" stroke-opacity="0.5"/>
<path id="Vector 231" d="M3011 305V260" stroke="#FF5F5F" stroke-opacity="0.5"/>
<path id="Vector 232" d="M2935 305V260" stroke="#FF5F5F" stroke-opacity="0.5"/>
<path id="Vector 233" d="M2859 305V260" stroke="#FF5F5F" stroke-opacity="0.5"/>
<path id="Vector 234" d="M2647 305V260" stroke="#FF5F5F" stroke-opacity="0.5"/>
<path id="Vector 254" d="M1797 305V260" stroke="#FF5F5F" stroke-opacity="0.5"/>
<path id="Vector 255" d="M1684 305V260" stroke="#FF5F5F" stroke-opacity="0.5"/>
<path id="Vector 256" d="M1477 305V260" stroke="#FF5F5F" stroke-opacity="0.5"/>
<path id="Vector 257" d="M1271 305V260" stroke="#FF5F5F" stroke-opacity="0.5"/>
<path id="Vector 258" d="M580 305V260" stroke="#FF5F5F" stroke-opacity="0.5"/>
<path id="Vector 259" d="M480 305V260" stroke="#FF5F5F" stroke-opacity="0.5"/>
<path id="Vector 260" d="M240 305V260" stroke="#FF5F5F" stroke-opacity="0.5"/>
<path id="Vector 261" d="M84 305V260" stroke="#FF5F5F" stroke-opacity="0.5"/>
<path id="Vector 235" d="M2493 305V260" stroke="#FF5F5F" stroke-opacity="0.5"/>
<path id="Vector 236" d="M2493 350V305" stroke="#FF5F5F" stroke-opacity="0.5"/>
<path id="Vector 237" d="M2367 350V305" stroke="#FF5F5F" stroke-opacity="0.5"/>
<path id="Vector 238" d="M2193 350V305" stroke="#FF5F5F" stroke-opacity="0.5"/>
<path id="Vector 239" d="M2107 350V305" stroke="#FF5F5F" stroke-opacity="0.5"/>
<path id="Vector 240" d="M1891 350V305" stroke="#FF5F5F" stroke-opacity="0.5"/>
<path id="Vector 241" d="M1148 350V305" stroke="#FF5F5F" stroke-opacity="0.5"/>
<path id="Vector 242" d="M693 350V305" stroke="#FF5F5F" stroke-opacity="0.5"/>
<path id="Vector 243" d="M2785 87L2785 305" stroke="#FF5F5F" stroke-opacity="0.5"/>
<path id="Vector 275" d="M2785 305V983" stroke="#FF5F5F" stroke-opacity="0.5" stroke-width="3"/>
<path id="Vector 244" d="M2830 983H2785" stroke="#FF5F5F" stroke-opacity="0.5"/>
<path id="Vector 270" d="M2785 933H2740" stroke="#FF5F5F" stroke-opacity="0.5"/>
<path id="Vector 271" d="M2830 717H2785" stroke="#FF5F5F" stroke-opacity="0.5"/>
<path id="Vector 272" d="M2830 602H2785" stroke="#FF5F5F" stroke-opacity="0.5"/>
<path id="Vector 273" d="M2785 537H2740" stroke="#FF5F5F" stroke-opacity="0.5"/>
<path id="Vector 274" d="M2820 87H2785" stroke="#FF5F5F" stroke-opacity="0.5"/>
<path id="Vector 246" d="M1580 80V305" stroke="#FF5F5F" stroke-opacity="0.5"/>
<path id="Vector 247" d="M1580 1007H1630" stroke="#FF5F5F" stroke-opacity="0.5"/>
<path id="Vector 248" d="M1580 777H1630" stroke="#FF5F5F" stroke-opacity="0.5"/>
<path id="Vector 252" d="M1580 584H1630" stroke="#FF5F5F" stroke-opacity="0.5"/>
<path id="Vector 253" d="M1580 80H1630" stroke="#FF5F5F" stroke-opacity="0.5"/>
<path id="Vector 249" d="M1530 737H1580" stroke="#FF5F5F" stroke-opacity="0.5"/>
<path id="Vector 251" d="M1530 523H1580" stroke="#FF5F5F" stroke-opacity="0.5"/>
<path id="Vector 250" d="M1530 933H1580" stroke="#FF5F5F" stroke-opacity="0.5"/>
<path id="Vector 262" d="M380 305L380 72" stroke="#FF5F5F" stroke-opacity="0.5"/>
<path id="Vector 277" d="M380 1038L380 305" stroke="#FF5F5F" stroke-opacity="0.5"/>
<path id="Vector 263" d="M430 72H380" stroke="#FF5F5F" stroke-opacity="0.5"/>
<path id="Vector 264" d="M430 563H380" stroke="#FF5F5F" stroke-opacity="0.5"/>
<path id="Vector 265" d="M430 703H380" stroke="#FF5F5F" stroke-opacity="0.5"/>
<path id="Vector 266" d="M430 1038H380" stroke="#FF5F5F" stroke-opacity="0.5"/>
<path id="Vector 267" d="M380 908H330" stroke="#FF5F5F" stroke-opacity="0.5"/>
<path id="Vector 268" d="M330 483H380" stroke="#FF5F5F" stroke-opacity="0.5"/>
<path id="Vector 269" d="M330 768H380" stroke="#FF5F5F" stroke-opacity="0.5"/>
</g>
</svg>
