<svg width="3055" height="1105" viewBox="0 0 3055 1105" fill="none" xmlns="http://www.w3.org/2000/svg">
<g id="N-4-GRAPH">
<path id="Vector 276" d="M1580 305L1580 980" stroke="#FF5F5F" stroke-opacity="0.5"/>
<path id="Vector 230" d="M380 305H920" stroke="#FF5F5F" stroke-opacity="0.5"/>
<path id="Vector 297" d="M920 305L3011 305" stroke="#FF5F5F" stroke-opacity="0.5"/>
<path id="Vector 231" d="M3011 305V260" stroke="#FF5F5F" stroke-opacity="0.5"/>
<path id="Vector 232" d="M2935 305V260" stroke="#FF5F5F" stroke-opacity="0.5"/>
<path id="Vector 233" d="M2859 305V260" stroke="#FF5F5F" stroke-opacity="0.5"/>
<path id="Vector 234" d="M2647 305V260" stroke="#FF5F5F" stroke-opacity="0.5"/>
<path id="Vector 254" d="M1797 305V260" stroke="#FF5F5F" stroke-opacity="0.5"/>
<path id="Vector 256" d="M1477 305V260" stroke="#FF5F5F" stroke-opacity="0.5"/>
<path id="Vector 257" d="M1271 305V260" stroke="#FF5F5F" stroke-opacity="0.5"/>
<path id="Vector 258" d="M580 305V260" stroke="#FF5F5F" stroke-opacity="0.5"/>
<path id="Vector 259" d="M480 305V260" stroke="#FF5F5F" stroke-opacity="0.5"/>
<path id="Vector 260" d="M380 260V205" stroke="#FF5F5F" stroke-opacity="0.5"/>
<path id="Vector 261" d="M380 205H330" stroke="#FF5F5F" stroke-opacity="0.5"/>
<path id="Vector 235" d="M2493 305V260" stroke="#FF5F5F" stroke-opacity="0.5"/>
<path id="Vector 236" d="M2493 350V305" stroke="#FF5F5F" stroke-opacity="0.5"/>
<path id="Vector 238" d="M2253 350V305" stroke="#FF5F5F" stroke-opacity="0.5"/>
<path id="Vector 239" d="M2057 350V305" stroke="#FF5F5F" stroke-opacity="0.5"/>
<path id="Vector 240" d="M1937 350V305" stroke="#FF5F5F" stroke-opacity="0.5"/>
<path id="Vector 243" d="M2780 260L2780 305" stroke="#FF5F5F" stroke-opacity="0.5"/>
<path id="Vector 275" d="M2785 305V933" stroke="#FF5F5F" stroke-opacity="0.5"/>
<path id="Vector 299" d="M2695 933V1065" stroke="#FF5F5F" stroke-opacity="0.5"/>
<path id="Vector 300" d="M2695 1065H2741" stroke="#FF5F5F" stroke-opacity="0.5"/>
<path id="Vector 244" d="M2740 933H2695" stroke="#FF5F5F" stroke-opacity="0.5"/>
<path id="Vector 270" d="M2785 933H2740" stroke="#FF5F5F" stroke-opacity="0.5"/>
<path id="Vector 271" d="M2830 737H2785" stroke="#FF5F5F" stroke-opacity="0.5"/>
<path id="Vector 272" d="M2830 602H2785" stroke="#FF5F5F" stroke-opacity="0.5"/>
<path id="Vector 273" d="M2785 807H2740" stroke="#FF5F5F" stroke-opacity="0.5"/>
<path id="Vector 246" d="M1580 260L1580 305" stroke="#FF5F5F" stroke-opacity="0.5"/>
<path id="Vector 248" d="M1580 777H1630" stroke="#FF5F5F" stroke-opacity="0.5"/>
<path id="Vector 252" d="M1580 513H1630" stroke="#FF5F5F" stroke-opacity="0.5"/>
<path id="Vector 251" d="M1530 513H1580" stroke="#FF5F5F" stroke-opacity="0.5"/>
<path id="Vector 250" d="M1530 933H1580" stroke="#FF5F5F" stroke-opacity="0.5"/>
<path id="Vector 298" d="M1580 933H1630" stroke="#FF5F5F" stroke-opacity="0.5"/>
<path id="Vector 262" d="M380 305L380 260" stroke="#FF5F5F" stroke-opacity="0.5"/>
<path id="Vector 295" d="M560 486H521" stroke="#FF5F5F" stroke-opacity="0.5"/>
<path id="Vector 296" d="M521 486V305" stroke="#FF5F5F" stroke-opacity="0.5"/>
</g>
</svg>
