<svg width="3055" height="1105" viewBox="0 0 3055 1105" fill="none" xmlns="http://www.w3.org/2000/svg">
<g id="N-4">
<g id="Spaces">
<rect id="n-4-wcw-1" opacity="0.2" x="1210" y="5" width="160" height="255" fill="#F783CB"/>
<rect id="n-4-cowork-1" opacity="0.2" x="630" y="240" width="580" height="220" fill="#76CFD9"/>
<rect id="n-4-wcm-1" opacity="0.2" x="1370" y="5" width="160" height="255" fill="#9CBBFF"/>
<path id="n-4-stair-2" opacity="0.2" d="M1530 5H1850V150H1630V260H1530V5Z" fill="#9CD9BC"/>
<rect id="n-4-lift-2" opacity="0.2" x="1740" y="150" width="110" height="110" fill="#A091F8"/>
<rect id="n-4-lift-1" opacity="0.2" x="1630" y="150" width="110" height="110" fill="#A091F8"/>
<path id="n-4-stair-1" opacity="0.2" d="M2740 5H3050V170H2820V260H2740V5Z" fill="#9CD9BC"/>
<path id="n-4-stair-3" opacity="0.2" d="M330 5H630V140H430V260H330V5Z" fill="#9CD9BC"/>
<rect id="n-4-lift-5" opacity="0.2" x="2973" y="170" width="77" height="90" fill="#A091F8"/>
<rect id="n-4-lift-7" opacity="0.2" x="530" y="140" width="100" height="120" fill="#A091F8"/>
<rect id="n-4-lift-6" opacity="0.2" x="430" y="140" width="100" height="120" fill="#A091F8"/>
<rect id="n-4-lift-4" opacity="0.2" x="2897" y="170" width="76" height="90" fill="#A091F8"/>
<rect id="n-4-lift-3" opacity="0.2" x="2820" y="170" width="77" height="90" fill="#A091F8"/>
<rect id="n-405" x="1210" y="350" width="320" height="530" fill="#3B3C41"/>
<rect id="n-407" x="1210" y="880" width="320" height="220" fill="#3B3C41"/>
<rect id="n-409" x="1630" y="860" width="220" height="240" fill="#3B3C41"/>
<rect id="n-4-u-6" x="1530" y="980" width="100" height="120" fill="#3B3C41"/>
<rect id="n-408" x="1630" y="650" width="220" height="210" fill="#3B3C41"/>
<rect id="n-406" x="1630" y="350" width="220" height="300" fill="#3B3C41"/>
<rect id="n-4-u-5" x="1850" y="350" width="130" height="110" fill="#3B3C41"/>
<rect id="n-418" x="1980" y="350" width="150" height="110" fill="#3B3C41"/>
<rect id="n-419" x="2131" y="350" width="279" height="110" fill="#3B3C41"/>
<rect id="n-4-u04" x="2410" y="350" width="330" height="110" fill="#3B3C41"/>
<rect id="n-4-u-3" x="2410" y="460" width="330" height="410" fill="#3B3C41"/>
<rect id="n-4-u-2" x="2410" y="870" width="330" height="230" fill="#3B3C41"/>
<rect id="n-4-u-1" x="2740" y="1030" width="90" height="70" fill="#3B3C41"/>
<rect id="n-416" x="2830" y="672" width="220" height="428" fill="#3B3C41"/>
<rect id="n-415" x="2830" y="350" width="220" height="322" fill="#3B3C41"/>
<rect id="n-410" x="2410" y="5" width="160" height="255" fill="#3B3C41"/>
<rect id="n-411" x="2570" y="5" width="170" height="255" fill="#3B3C41"/>
<rect id="n-402" x="5" y="5" width="325" height="255" fill="#3B3C41"/>
<path id="n-401" d="M75 440H5V1100H630V440H560V530H75V440Z" fill="#3B3C41"/>
</g>
<g id="Walls">
<path id="Subtract" fill-rule="evenodd" clip-rule="evenodd" d="M2612 460V665V668H2615H2642L2642 662H2618V460H2612ZM2672 662V668H2740V662H2672Z" fill="#9A9A9C"/>
<path id="Subtract_2" fill-rule="evenodd" clip-rule="evenodd" d="M155 134.5V10H161V137.5V177H155V140.5H125V134.5H155ZM95 134.5H10V140.5H95V134.5ZM155 207H161V265H155V207Z" fill="#9A9A9C"/>
<path id="Vneskniy kontur" d="M630 5H5V1100H630V460H1210V1100H1850V460H2410V1100H3050V5H2410V240H1850V5H1210V240H630V5Z" stroke="#D9D9D9" stroke-width="10"/>
<path id="Vector 294" d="M2830 1030H2740" stroke="#D9D9D9" stroke-width="10"/>
<path id="Vector 137" d="M1850 340L1850 460" stroke="#D9D9D9" stroke-width="10"/>
<path id="Vector 150" d="M1210 340L1210 350" stroke="#D9D9D9" stroke-width="10"/>
<path id="Vector 211" d="M2410 340L2410 350" stroke="#D9D9D9" stroke-width="10"/>
<path id="Vector 205" d="M630 340L630 460" stroke="#D9D9D9" stroke-width="10"/>
<path id="Vector 140" d="M1630 650H1850" stroke="#D9D9D9" stroke-width="10"/>
<path id="Vector 141" d="M1630 860H1850" stroke="#D9D9D9" stroke-width="10"/>
<path id="Vector 144" d="M1210 880H1530" stroke="#D9D9D9" stroke-width="10"/>
<path id="Vector 146" d="M1370 260V5" stroke="#D9D9D9" stroke-width="10"/>
<path id="Vector 149" d="M1740 150V260" stroke="#D9D9D9" stroke-width="10"/>
<path id="Subtract_3" fill-rule="evenodd" clip-rule="evenodd" d="M1535 5V260V265H1530H1500V255H1525V5H1535ZM1454 255V265H1294V255H1454ZM1248 255V265H1210V255H1248Z" fill="#D9D9D9"/>
<path id="Subtract_4" fill-rule="evenodd" clip-rule="evenodd" d="M1850 145H1630H1625V150L1625 260V265H1630H1661V255H1635L1635 155H1850V145ZM1774 265H1707V255H1774V265ZM1820 265H1845V270H1855V260V240H1845V255H1820V265Z" fill="#D9D9D9"/>
<path id="Vector 138" d="M1210 240L1210 270" stroke="#D9D9D9" stroke-width="10"/>
<path id="Vector 212" d="M2410 240L2410 270" stroke="#D9D9D9" stroke-width="10"/>
<path id="Vector 206" d="M630 240L630 270" stroke="#D9D9D9" stroke-width="10"/>
<path id="Subtract_5" fill-rule="evenodd" clip-rule="evenodd" d="M1210 345H1205V350V461H1215V355H1525V490H1535V350V345H1530H1210ZM1525 536V714H1535V536H1525ZM1525 910V760H1535V910H1525ZM1525 956V1100H1535V956H1525Z" fill="#D9D9D9"/>
<path id="Subtract_6" fill-rule="evenodd" clip-rule="evenodd" d="M1630 345H1625V350V490H1635V355H1850V345H1630ZM1625 536V754H1635V536H1625ZM1625 910V800H1635V910H1625ZM1625 956V1100H1635V956H1625Z" fill="#D9D9D9"/>
<path id="Vector 220" d="M2410 350V460" stroke="#D9D9D9" stroke-width="10"/>
<path id="Vector 221" d="M2740 460H2410" stroke="#D9D9D9" stroke-width="10"/>
<path id="Vector 222" d="M2740 870H2410" stroke="#D9D9D9" stroke-width="10"/>
<path id="Vector 224" d="M3050 672L2830 672" stroke="#D9D9D9" stroke-width="10"/>
<path id="Subtract_7" fill-rule="evenodd" clip-rule="evenodd" d="M325 228V255H4.99988V265H330H335V260V228H325ZM325 182H335V5H325V182Z" fill="#D9D9D9"/>
<path id="Vector 214" d="M530 140V260" stroke="#D9D9D9" stroke-width="10"/>
<path id="Subtract_8" fill-rule="evenodd" clip-rule="evenodd" d="M2745 5V260V265H2740H2670V255H2735V5H2745ZM2624 255H2516V265H2624V255ZM2470 255V265H2410V255H2470Z" fill="#D9D9D9"/>
<path id="Vector 227" d="M2973 170V260" stroke="#D9D9D9" stroke-width="10"/>
<path id="Vector 226" d="M2897 170V260" stroke="#D9D9D9" stroke-width="10"/>
<path id="Vector 228" d="M2570 260V5" stroke="#D9D9D9" stroke-width="10"/>
<path id="Subtract_9" fill-rule="evenodd" clip-rule="evenodd" d="M2815 165L2820 165L3050 165V175L2825 175V255H2836L2836 265H2820H2815V260V170V165ZM2882 265H2912V255H2882V265ZM2988 265H2958V255H2988V265ZM3034 265H3050V255H3034V265Z" fill="#D9D9D9"/>
<path id="Subtract_10" fill-rule="evenodd" clip-rule="evenodd" d="M2830 345H2825V350V579H2835V355H3050V345H2830ZM2825 625V714H2835V625H2825ZM2825 960V760H2835V960H2825ZM2825 1006V1100H2835V1006H2825Z" fill="#D9D9D9"/>
<path id="Subtract_11" fill-rule="evenodd" clip-rule="evenodd" d="M2470 355V345H2276V355H2470ZM2516 355H2735V784H2745V350V345H2740H2516V355ZM2230 355V345H2080V355H2230ZM2735 910V830H2745V910H2735ZM2735 1050V956H2745V1050H2735ZM2735 1080V1100H2745V1080H2735ZM2034 345V355H1960V345H2034ZM1914 355V345H1850V355H1914Z" fill="#D9D9D9"/>
<path id="Subtract_12" fill-rule="evenodd" clip-rule="evenodd" d="M425 135H430H630V145H435V255H457L457 265H430H425V260V140V135ZM557 265H503V255H557V265ZM603 265H630V255H603V265Z" fill="#D9D9D9"/>
<path id="Subtract_13" fill-rule="evenodd" clip-rule="evenodd" d="M1540 265L1540 255H1530V265H1540ZM1620 265H1630V255H1620V265Z" fill="#D9D9D9"/>
<path id="Vector 285" d="M2740 260H2750" stroke="#D9D9D9" stroke-width="10"/>
<path id="Vector 286" d="M2810 260H2820" stroke="#D9D9D9" stroke-width="10"/>
<path id="Vector 281" d="M2740 350H2750" stroke="#D9D9D9" stroke-width="10"/>
<path id="Vector 282" d="M2820 350H2830" stroke="#D9D9D9" stroke-width="10"/>
<path id="Subtract_14" fill-rule="evenodd" clip-rule="evenodd" d="M340 265L340 255H330V265H340ZM420 265H430V255H420V265Z" fill="#D9D9D9"/>
<path id="Subtract_15" fill-rule="evenodd" clip-rule="evenodd" d="M75 450H10V440H80H85V445V470H75V450ZM75 516V535V540H80H565H570V535V514H560V530H85V516H75ZM570 450V468H560V445V440H565H635V450H570Z" fill="#D9D9D9"/>
<path id="Vector 289" d="M1985.5 355L1985 465" stroke="#D9D9D9" stroke-width="10"/>
<path id="Vector 290" d="M2135.5 355L2135 465" stroke="#D9D9D9" stroke-width="10"/>
<path id="Subtract_16" fill-rule="evenodd" clip-rule="evenodd" d="M1562 990L1562 980H1535V990H1562ZM1608 990H1635V980H1608V990Z" fill="#D9D9D9"/>
</g>
<g id="Textes">
<text id="text 1" fill="#D9D9D9" xml:space="preserve" style="white-space: pre" font-family="GothamSSm" font-size="24" font-weight="bold" letter-spacing="0em"><tspan x="1342.14" y="999.62">&#x41d; 407</tspan></text>
<text id="text 2" fill="#D9D9D9" xml:space="preserve" style="white-space: pre" font-family="GothamSSm" font-size="24" font-weight="bold" letter-spacing="0em"><tspan x="1341.36" y="624.62">&#x41d; 405</tspan></text>
<text id="text 17" fill="#D9D9D9" xml:space="preserve" style="white-space: pre" font-family="GothamSSm" font-size="24" font-weight="bold" letter-spacing="0em"><tspan x="291.203" y="819.62">&#x41d; 401</tspan></text>
<text id="text 18" fill="#D9D9D9" xml:space="preserve" style="white-space: pre" font-family="GothamSSm" font-size="24" font-weight="bold" letter-spacing="0em"><tspan x="216.434" y="141.62">&#x41d; 402</tspan></text>
<text id="text 3" fill="#D9D9D9" xml:space="preserve" style="white-space: pre" font-family="GothamSSm" font-size="24" font-weight="bold" letter-spacing="0em"><tspan x="1711.37" y="509.62">&#x41d; 406</tspan></text>
<text id="text 7" fill="#D9D9D9" xml:space="preserve" style="white-space: pre" font-family="GothamSSm" font-size="24" font-weight="bold" letter-spacing="0em"><tspan x="2029.31" y="414.62">&#x41d; 418</tspan></text>
<text id="text 8" fill="#D9D9D9" xml:space="preserve" style="white-space: pre" font-family="GothamSSm" font-size="24" font-weight="bold" letter-spacing="0em"><tspan x="2245.24" y="414.62">&#x41d; 419</tspan></text>
<text id="text 15" fill="#D9D9D9" xml:space="preserve" style="white-space: pre" font-family="GothamSSm" font-size="24" font-weight="bold" letter-spacing="0em"><tspan x="2631.46" y="141.62">&#x41d; 411 </tspan></text>
<text id="text 16" fill="#D9D9D9" xml:space="preserve" style="white-space: pre" font-family="GothamSSm" font-size="24" font-weight="bold" letter-spacing="0em"><tspan x="2464.27" y="141.62">&#x41d; 410</tspan></text>
<text id="text 12" fill="#D9D9D9" xml:space="preserve" style="white-space: pre" font-family="GothamSSm" font-size="24" font-weight="bold" letter-spacing="0em"><tspan x="2914.22" y="895.62">&#x41d; 416</tspan></text>
<text id="text 14" fill="#D9D9D9" xml:space="preserve" style="white-space: pre" font-family="GothamSSm" font-size="24" font-weight="bold" letter-spacing="0em"><tspan x="2915.21" y="520.62">&#x41d; 415 </tspan></text>
<text id="text 4" fill="#D9D9D9" xml:space="preserve" style="white-space: pre" font-family="GothamSSm" font-size="24" font-weight="bold" letter-spacing="0em"><tspan x="1711.46" y="764.62">&#x41d; 408</tspan></text>
<text id="text 5" fill="#D9D9D9" xml:space="preserve" style="white-space: pre" font-family="GothamSSm" font-size="24" font-weight="bold" letter-spacing="0em"><tspan x="1711.39" y="989.62">&#x41d; 409</tspan></text>
</g>
<g id="Entrances">
<circle id="1" cx="1271" cy="260" r="10" fill="#9CBBFF" fill-opacity="0.05"/>
<circle id="12" cx="920" cy="305" r="10" fill="#9CBBFF" fill-opacity="0.05"/>
<circle id="14" cx="580" cy="260" r="10" fill="#9CBBFF" fill-opacity="0.05"/>
<circle id="15" cx="480" cy="260" r="10" fill="#9CBBFF" fill-opacity="0.05"/>
<circle id="16" cx="380" cy="260" r="10" fill="#9CBBFF" fill-opacity="0.05"/>
<circle id="17" cx="330" cy="205" r="10" fill="#9CBBFF" fill-opacity="0.05"/>
<circle id="24" cx="560" cy="486" r="10" fill="#9CBBFF" fill-opacity="0.05"/>
<circle id="2" cx="1477" cy="260" r="10" fill="#9CBBFF" fill-opacity="0.05"/>
<circle id="6" cx="1630" cy="513" r="10" fill="#9CBBFF" fill-opacity="0.05"/>
<circle id="7" cx="1530" cy="513" r="10" fill="#9CBBFF" fill-opacity="0.05"/>
<circle id="9" cx="1530" cy="933" r="10" fill="#9CBBFF" fill-opacity="0.05"/>
<circle id="41" cx="1580" cy="980" r="10" fill="#9CBBFF" fill-opacity="0.05"/>
<circle id="10" cx="1630" cy="933" r="10" fill="#9CBBFF" fill-opacity="0.05"/>
<circle id="11" cx="1630" cy="777" r="10" fill="#9CBBFF" fill-opacity="0.05"/>
<circle id="5" cx="1580" cy="260" r="10" fill="#9CBBFF" fill-opacity="0.05"/>
<circle id="4" cx="1797" cy="260" r="10" fill="#9CBBFF" fill-opacity="0.05"/>
<circle id="25" cx="1937" cy="350" r="10" fill="#9CBBFF" fill-opacity="0.05"/>
<circle id="26" cx="2057" cy="350" r="10" fill="#9CBBFF" fill-opacity="0.05"/>
<circle id="28" cx="2253" cy="350" r="10" fill="#9CBBFF" fill-opacity="0.05"/>
<circle id="29" cx="2493" cy="350" r="10" fill="#9CBBFF" fill-opacity="0.05"/>
<circle id="30" cx="2493" cy="260" r="10" fill="#9CBBFF" fill-opacity="0.05"/>
<circle id="31" cx="2647" cy="260" r="10" fill="#9CBBFF" fill-opacity="0.05"/>
<circle id="32" cx="2830" cy="602" r="10" fill="#9CBBFF" fill-opacity="0.05"/>
<circle id="36" cx="2830" cy="737" r="10" fill="#9CBBFF" fill-opacity="0.05"/>
<circle id="37" cx="2740" cy="807" r="10" fill="#9CBBFF" fill-opacity="0.05"/>
<circle id="38" cx="2740" cy="933" r="10" fill="#9CBBFF" fill-opacity="0.05"/>
<circle id="42" cx="2741" cy="1065" r="10" fill="#9CBBFF" fill-opacity="0.05"/>
<circle id="35" cx="2780" cy="260" r="10" fill="#9CBBFF" fill-opacity="0.05"/>
<circle id="33" cx="2935" cy="260" r="10" fill="#9CBBFF" fill-opacity="0.05"/>
<circle id="40" cx="2859" cy="260" r="10" fill="#9CBBFF" fill-opacity="0.05"/>
<circle id="34" cx="3011" cy="260" r="10" fill="#9CBBFF" fill-opacity="0.05"/>
</g>
<g id="Icons">
<g id="Stair">
<g id="Stair frame">
<path id="Vector 152" d="M1782 57H1757V72H1742V87H1727V102H1702" stroke="#9CD9BC" stroke-width="5" stroke-linecap="round" stroke-linejoin="round"/>
<path id="Vector 154" d="M1714 57H1729M1729 57L1726 71M1729 57L1702 78" stroke="#9CD9BC" stroke-width="3" stroke-linecap="round" stroke-linejoin="round"/>
<path id="Vector 155" d="M1770 102H1755M1755 102L1758 88M1755 102L1782 81" stroke="#9CD9BC" stroke-width="3" stroke-linecap="round" stroke-linejoin="round"/>
</g>
</g>
<g id="Elevator">
<g id="Vector">
<path d="M496 197L490 191L484 197H496Z" fill="#A091F8"/>
<path d="M496 201L490 207L484 201H496Z" fill="#A091F8"/>
<path d="M478 197C478 194 476 191 473 191H469C466 191 464 194 464 197V202C464 204 465.5 205.5 467 205.5V215C467 216.6 468.333 217 469 217H473C473.667 217 475 216.6 475 215V205.5C476.5 205.5 478 204 478 202V197Z" fill="#A091F8"/>
<path d="M475 184C475 186.209 473.209 188 471 188C468.791 188 467 186.209 467 184C467 181.791 468.791 180 471 180C473.209 180 475 181.791 475 184Z" fill="#A091F8"/>
</g>
<path id="Vector 201" d="M467.5 227.5H455.5V172.5H504.5V227.5H492.5" stroke="#A091F8" stroke-width="5" stroke-linecap="round" stroke-linejoin="round"/>
</g>
<g id="Elevator_2">
<g id="Vector_2">
<path d="M596 197L590 191L584 197H596Z" fill="#A091F8"/>
<path d="M596 201L590 207L584 201H596Z" fill="#A091F8"/>
<path d="M578 197C578 194 576 191 573 191H569C566 191 564 194 564 197V202C564 204 565.5 205.5 567 205.5V215C567 216.6 568.333 217 569 217H573C573.667 217 575 216.6 575 215V205.5C576.5 205.5 578 204 578 202V197Z" fill="#A091F8"/>
<path d="M575 184C575 186.209 573.209 188 571 188C568.791 188 567 186.209 567 184C567 181.791 568.791 180 571 180C573.209 180 575 181.791 575 184Z" fill="#A091F8"/>
</g>
<path id="Vector 201_2" d="M567.5 227.5H555.5V172.5H604.5V227.5H592.5" stroke="#A091F8" stroke-width="5" stroke-linecap="round" stroke-linejoin="round"/>
</g>
<g id="Elevator_3">
<g id="Vector_3">
<path d="M1811 202L1805 196L1799 202H1811Z" fill="#A091F8"/>
<path d="M1811 206L1805 212L1799 206H1811Z" fill="#A091F8"/>
<path d="M1793 202C1793 199 1791 196 1788 196H1784C1781 196 1779 199 1779 202V207C1779 209 1780.5 210.5 1782 210.5V220C1782 221.6 1783.33 222 1784 222H1788C1788.67 222 1790 221.6 1790 220V210.5C1791.5 210.5 1793 209 1793 207V202Z" fill="#A091F8"/>
<path d="M1790 189C1790 191.209 1788.21 193 1786 193C1783.79 193 1782 191.209 1782 189C1782 186.791 1783.79 185 1786 185C1788.21 185 1790 186.791 1790 189Z" fill="#A091F8"/>
</g>
<path id="Vector 201_3" d="M1782.5 232.5H1770.5V177.5H1819.5V232.5H1807.5" stroke="#A091F8" stroke-width="5" stroke-linecap="round" stroke-linejoin="round"/>
</g>
<g id="Elevator_4">
<g id="Vector_4">
<path d="M2874 212L2868 206L2862 212H2874Z" fill="#A091F8"/>
<path d="M2874 216L2868 222L2862 216H2874Z" fill="#A091F8"/>
<path d="M2856 212C2856 209 2854 206 2851 206H2847C2844 206 2842 209 2842 212V217C2842 219 2843.5 220.5 2845 220.5V230C2845 231.6 2846.33 232 2847 232H2851C2851.67 232 2853 231.6 2853 230V220.5C2854.5 220.5 2856 219 2856 217V212Z" fill="#A091F8"/>
<path d="M2853 199C2853 201.209 2851.21 203 2849 203C2846.79 203 2845 201.209 2845 199C2845 196.791 2846.79 195 2849 195C2851.21 195 2853 196.791 2853 199Z" fill="#A091F8"/>
</g>
<path id="Vector 201_4" d="M2845.5 242.5H2833.5V187.5H2882.5V242.5H2870.5" stroke="#A091F8" stroke-width="5" stroke-linecap="round" stroke-linejoin="round"/>
</g>
<g id="Elevator_5">
<g id="Vector_5">
<path d="M2951 212L2945 206L2939 212H2951Z" fill="#A091F8"/>
<path d="M2951 216L2945 222L2939 216H2951Z" fill="#A091F8"/>
<path d="M2933 212C2933 209 2931 206 2928 206H2924C2921 206 2919 209 2919 212V217C2919 219 2920.5 220.5 2922 220.5V230C2922 231.6 2923.33 232 2924 232H2928C2928.67 232 2930 231.6 2930 230V220.5C2931.5 220.5 2933 219 2933 217V212Z" fill="#A091F8"/>
<path d="M2930 199C2930 201.209 2928.21 203 2926 203C2923.79 203 2922 201.209 2922 199C2922 196.791 2923.79 195 2926 195C2928.21 195 2930 196.791 2930 199Z" fill="#A091F8"/>
</g>
<path id="Vector 201_5" d="M2922.5 242.5H2910.5V187.5H2959.5V242.5H2947.5" stroke="#A091F8" stroke-width="5" stroke-linecap="round" stroke-linejoin="round"/>
</g>
<g id="Elevator_6">
<g id="Vector_6">
<path d="M3027 212L3021 206L3015 212H3027Z" fill="#A091F8"/>
<path d="M3027 216L3021 222L3015 216H3027Z" fill="#A091F8"/>
<path d="M3009 212C3009 209 3007 206 3004 206H3000C2997 206 2995 209 2995 212V217C2995 219 2996.5 220.5 2998 220.5V230C2998 231.6 2999.33 232 3000 232H3004C3004.67 232 3006 231.6 3006 230V220.5C3007.5 220.5 3009 219 3009 217V212Z" fill="#A091F8"/>
<path d="M3006 199C3006 201.209 3004.21 203 3002 203C2999.79 203 2998 201.209 2998 199C2998 196.791 2999.79 195 3002 195C3004.21 195 3006 196.791 3006 199Z" fill="#A091F8"/>
</g>
<path id="Vector 201_6" d="M2998.5 242.5H2986.5V187.5H3035.5V242.5H3023.5" stroke="#A091F8" stroke-width="5" stroke-linecap="round" stroke-linejoin="round"/>
</g>
<g id="Woman">
<g id="Group 5">
<path id="Vector 200" d="M1295.5 134L1304 155.5H1276L1284.5 134" stroke="#F783CB" stroke-width="5" stroke-linecap="round" stroke-linejoin="round"/>
<circle id="Ellipse 9" cx="1290" cy="116" r="8" stroke="#F783CB" stroke-width="5" stroke-linecap="round" stroke-linejoin="round"/>
</g>
</g>
<g id="Men">
<g id="Group 6">
<path id="Vector 200_2" d="M1455.5 155.5L1464 134H1436L1444.5 155.5" stroke="#9CBBFF" stroke-width="5" stroke-linecap="round" stroke-linejoin="round"/>
<circle id="Ellipse 9_2" cx="1450" cy="116" r="8" stroke="#9CBBFF" stroke-width="5" stroke-linecap="round" stroke-linejoin="round"/>
</g>
</g>
<g id="Stair_2">
<g id="Stair frame_2">
<path id="Vector 152_2" d="M2975 65H2950V80H2935V95H2920V110H2895" stroke="#9CD9BC" stroke-width="5" stroke-linecap="round" stroke-linejoin="round"/>
<path id="Vector 154_2" d="M2907 65H2922M2922 65L2919 79M2922 65L2895 86" stroke="#9CD9BC" stroke-width="3" stroke-linecap="round" stroke-linejoin="round"/>
<path id="Vector 155_2" d="M2963 110H2948M2948 110L2951 96M2948 110L2975 89" stroke="#9CD9BC" stroke-width="3" stroke-linecap="round" stroke-linejoin="round"/>
</g>
</g>
<g id="Stair_3">
<g id="Stair frame_3">
<path id="Vector 152_3" d="M570 50H545V65H530V80H515V95H490" stroke="#9CD9BC" stroke-width="5" stroke-linecap="round" stroke-linejoin="round"/>
<path id="Vector 154_3" d="M502 50H517M517 50L514 64M517 50L490 71" stroke="#9CD9BC" stroke-width="3" stroke-linecap="round" stroke-linejoin="round"/>
<path id="Vector 155_3" d="M558 95H543M543 95L546 81M543 95L570 74" stroke="#9CD9BC" stroke-width="3" stroke-linecap="round" stroke-linejoin="round"/>
</g>
</g>
</g>
<g id="Frame 11">
<path id="Vector 287" d="M900.5 358.5L894.5 369H920H945.5L939.5 358.5M900.5 358.5H939.5M900.5 358.5V348.5M939.5 358.5V350" stroke="#76CFD9" stroke-width="5" stroke-linecap="round" stroke-linejoin="round"/>
<path id="Vector 288" d="M925 337.5H915" stroke="#76CFD9" stroke-width="3" stroke-linecap="round" stroke-linejoin="round"/>
<rect id="Rectangle 60" x="900.5" y="331.5" width="39" height="27" rx="4.5" stroke="#76CFD9" stroke-width="5"/>
</g>
</g>
</svg>
